# xmcd
#
# Track frame offsets:
#	150
#	14872
#	30740
#	47401
#	63156
#	80979
#	95384
#	112526
#	133956
#	149561
#	162986
#	177345
#
# Disc length: 2535 seconds
#
# Revision: 0
# Processed by: cddbd v1.4PL0 Copyright (c) Steve Scherf et al.
# Submitted via: audiograbber 1.81.01
#
DISCID=a509e50c
DTITLE=Lando Fiorini - I Grandi Successi Originali cd2
DYEAR=1900
DGENRE=pop
TTITLE0=Na' preghiera pe' roma sparita
TTITLE1=Nina, se voi dormite
TTITLE2=Madonna dell'angeli
TTITLE3=Portoncino di testaccio
TTITLE4=Lella
TTITLE5=Sinnò me moro
TTITLE6=L'eco der core
TTITLE7=La renella
TTITLE8=Le mantellate
TTITLE9=Serenata sincera
TTITLE10=Pe' lungotevere
TTITLE11=Mamma li turchi
EXTD=
EXTT0=
EXTT1=
EXTT2=
EXTT3=
EXTT4=
EXTT5=
EXTT6=
EXTT7=
EXTT8=
EXTT9=
EXTT10=
EXTT11=
PLAYORDER=
